<?xml version="1.0" encoding="utf-8"?>
<!-- Generator: Adobe Illustrator 21.0.2, SVG Export Plug-In . SVG Version: 6.00 Build 0)  -->
<svg version="1.1" id="Layer_1" xmlns="http://www.w3.org/2000/svg" xmlns:xlink="http://www.w3.org/1999/xlink" x="0px" y="0px"
	 viewBox="0 0 116 51" style="enable-background:new 0 0 116 51;" xml:space="preserve">
<title>Artboard</title>
<desc>Created with Sketch.</desc>
<g id="Page-1">
	<g id="Artboard">
		<g id="IWD-Black" transform="translate(0.300000, 0.300000)">
			<circle id="Oval" cx="5" cy="5.2" r="5"/>
			<path id="Shape" d="M18.3,38.9c-1.5,1.3-3.6,1.6-5.3,0.8c-1.8-0.8-2.9-2.6-2.9-4.5v-15c0-2.8-2.2-5-5-5s-5,2.2-5,5v15
				c0,2.2,0.5,4.4,1.5,6.5c1.5,3.1,4,5.6,7.1,7.1c4.7,2.3,10.3,1.9,14.7-1C20.8,45.4,19,42.3,18.3,38.9z"/>
			<path id="Shape_3_" d="M45,46.4c5.7,5.1,14.3,5.1,20,0c5.4,4.9,13.6,5.1,19.3,0.6l0,0c-2.5-2.4-4.3-5.4-5.3-8.8
				c-1.3,1.7-3.5,2.4-5.6,1.7c-2-0.7-3.4-2.6-3.4-4.7V21.1l0,0v-0.9c0-2.8-2.2-5-5-5c-2.8,0-5,2.2-5,5l0,0v10l0,0v5c0,2.8-2.2,5-5,5
				s-5-2.2-5-5V21.1l0,0v-0.9c0-2.8-2.2-5-5-5s-5,2.2-5,5l0,0v10l0,0v5c0,2.8-2.2,5-5,5s-5-2.2-5-5V21.1l0,0v-0.9c0-2.8-2.2-5-5-5
				s-5,2.2-5,5l0,0v10l0,0v5c0,3.7,1.4,7.3,3.8,10c0.4,0.4,0.8,0.8,1.2,1.2C30.7,51.5,39.3,51.5,45,46.4"/>
			<path id="Shape_2_" d="M110.4,0.2c-2.8,0-5,2.2-5,5v11.7c-7-3.3-15.4-1.6-20.6,4.2C79.7,27,79,35.5,83.2,42s12.2,9.6,19.6,7.4
				c7.5-2.2,12.6-9,12.6-16.8V5.2C115.4,2.4,113.1,0.2,110.4,0.2z M105.4,35.4C104,39,100.1,41,96.3,40s-6.1-4.8-5.4-8.6
				s4.2-6.5,8.1-6.1s6.9,3.6,6.9,7.5C105.9,33.6,105.7,34.5,105.4,35.4z"/>
		</g>
	</g>
</g>
</svg>
